<svg width="19" height="14" viewBox="0 0 19 14" fill="none" xmlns="http://www.w3.org/2000/svg">
<g clip-path="url(#clip0_1_144)">
<path fill-rule="evenodd" clip-rule="evenodd" d="M1.99375 3.00002C2.51561 2.99675 3.01966 3.13974 3.40382 3.40002L9.51096 7.64702L15.6072 3.40502C15.9909 3.1445 16.4936 2.99988 17.0153 2.99988C17.537 2.99988 18.0397 3.1445 18.4233 3.40502C18.6075 3.52978 18.7544 3.68134 18.855 3.85011C18.9555 4.01889 19.0075 4.2012 19.0075 4.38552C19.0075 4.56984 18.9555 4.75215 18.855 4.92093C18.7544 5.0897 18.6075 5.24126 18.4233 5.36602L10.9115 10.593C10.5292 10.8547 10.0267 11.0001 9.50485 11.0001C8.98303 11.0001 8.48051 10.8547 8.09818 10.593L0.589105 5.36602C0.404601 5.24142 0.257278 5.08992 0.156493 4.92112C0.0557075 4.75232 0.00366211 4.56993 0.00366211 4.38552C0.00366211 4.20111 0.0557075 4.01872 0.156493 3.84992C0.257278 3.68113 0.404601 3.52962 0.589105 3.40502C0.970413 3.14335 1.47268 2.99853 1.99375 3.00002Z" fill="white"/>
</g>
<defs>
<clipPath id="clip0_1_144">
<rect width="19" height="14" fill="white"/>
</clipPath>
</defs>
</svg>
