<svg width="31" height="26" viewBox="0 0 31 26" fill="none" xmlns="http://www.w3.org/2000/svg">
<g filter="url(#filter0_d_1_130)">
<path d="M24.8501 6.89392C24.1519 7.20243 23.4115 7.40495 22.6532 7.49477C23.4505 7.0172 24.0467 6.26689 24.3309 5.38345C23.5807 5.82936 22.7595 6.14393 21.9029 6.31355C21.326 5.70449 20.5644 5.30168 19.7354 5.16719C18.9064 5.03269 18.0561 5.17399 17.3156 5.5693C16.575 5.96461 15.9853 6.59198 15.6372 7.35474C15.2892 8.11749 15.2023 8.97329 15.3897 9.79024C13.869 9.71438 12.3812 9.32018 11.0231 8.63325C9.66496 7.94631 8.46679 6.982 7.50641 5.80292C7.01777 6.64324 6.86819 7.63772 7.08807 8.58416C7.30795 9.5306 7.88079 10.3579 8.69012 10.898C8.08172 10.8796 7.4866 10.716 6.95463 10.4208C6.95463 10.4367 6.95463 10.4525 6.95463 10.4692C6.9553 11.3514 7.26205 12.2062 7.82275 12.8883C8.38345 13.5704 9.16352 14.0378 10.0304 14.211C9.46725 14.364 8.87644 14.3863 8.30331 14.2761C8.54749 15.0345 9.02314 15.6977 9.66373 16.173C10.3043 16.6483 11.0778 16.9119 11.8759 16.9268C10.52 17.9883 8.84569 18.5635 7.1224 18.5601C6.81715 18.5604 6.51215 18.5427 6.20898 18.5071C7.9577 19.6285 9.99294 20.2239 12.0716 20.2222C19.1058 20.2222 22.9524 14.4063 22.9524 9.36332C22.9524 9.19777 22.9524 9.03314 22.9422 8.86944C23.6908 8.32937 24.3369 7.66039 24.8501 6.89392Z" fill="white"/>
</g>
<defs>
<filter id="filter0_d_1_130" x="0.208984" y="-0.882324" width="30.6411" height="27.1045" filterUnits="userSpaceOnUse" color-interpolation-filters="sRGB">
<feFlood flood-opacity="0" result="BackgroundImageFix"/>
<feColorMatrix in="SourceAlpha" type="matrix" values="0 0 0 0 0 0 0 0 0 0 0 0 0 0 0 0 0 0 127 0" result="hardAlpha"/>
<feOffset/>
<feGaussianBlur stdDeviation="3"/>
<feComposite in2="hardAlpha" operator="out"/>
<feColorMatrix type="matrix" values="0 0 0 0 0 0 0 0 0 0 0 0 0 0 0 0 0 0 0.1 0"/>
<feBlend mode="normal" in2="BackgroundImageFix" result="effect1_dropShadow_1_130"/>
<feBlend mode="normal" in="SourceGraphic" in2="effect1_dropShadow_1_130" result="shape"/>
</filter>
</defs>
</svg>
