<svg width="29" height="26" viewBox="0 0 29 26" fill="none" xmlns="http://www.w3.org/2000/svg">
<g filter="url(#filter0_d_1_137)">
<path d="M19.8159 6.59205C18.5562 6.01379 17.2265 5.6015 15.8603 5.36554C15.848 5.36414 15.8356 5.36621 15.8245 5.37153C15.8133 5.37684 15.8039 5.38518 15.7973 5.39558C15.6161 5.72397 15.4516 6.0613 15.3046 6.4063C13.8322 6.18232 12.3342 6.18232 10.8618 6.4063C10.7141 6.06018 10.5469 5.72273 10.3608 5.39558C10.3542 5.38518 10.3448 5.37684 10.3337 5.37153C10.3225 5.36621 10.3101 5.36414 10.2979 5.36554C8.93181 5.60228 7.60223 6.01454 6.34229 6.59205C6.33646 6.59362 6.33103 6.59636 6.32632 6.60013C6.3216 6.60389 6.31772 6.60858 6.31491 6.6139C3.79649 10.3699 3.10666 14.0331 3.44336 17.658C3.44698 17.6761 3.45663 17.6925 3.47074 17.7044C4.93669 18.7917 6.57686 19.623 8.32144 20.1629C8.33372 20.1667 8.34686 20.1666 8.35909 20.1627C8.37132 20.1588 8.38207 20.1512 8.38988 20.1411C8.76663 19.6269 9.09992 19.0823 9.3863 18.513C9.38996 18.5051 9.39201 18.4966 9.39233 18.4879C9.39266 18.4792 9.39125 18.4706 9.38819 18.4624C9.38514 18.4543 9.38049 18.4469 9.37453 18.4405C9.36856 18.4342 9.3614 18.4291 9.35345 18.4256C8.82928 18.2264 8.32212 17.9852 7.83692 17.7044C7.82844 17.699 7.82147 17.6915 7.81665 17.6827C7.81182 17.6738 7.80929 17.664 7.80929 17.6539C7.80929 17.6438 7.81182 17.6339 7.81665 17.6251C7.82147 17.6163 7.82844 17.6088 7.83692 17.6034C7.9382 17.5269 8.03949 17.4477 8.13804 17.3657C8.14761 17.3602 8.15846 17.3573 8.16952 17.3573C8.18057 17.3573 8.19142 17.3602 8.201 17.3657C9.72919 18.0812 11.3965 18.4521 13.0846 18.4521C14.7726 18.4521 16.4399 18.0812 17.9681 17.3657C17.9778 17.3604 17.9886 17.3577 17.9996 17.3577C18.0106 17.3577 18.0214 17.3604 18.0311 17.3657C18.1296 17.4449 18.2309 17.5269 18.3322 17.6034C18.3407 17.6088 18.3476 17.6163 18.3525 17.6251C18.3573 17.6339 18.3598 17.6438 18.3598 17.6539C18.3598 17.664 18.3573 17.6738 18.3525 17.6827C18.3476 17.6915 18.3407 17.699 18.3322 17.7044C17.8484 17.9879 17.341 18.2292 16.8157 18.4256C16.8077 18.4291 16.8005 18.4342 16.7946 18.4405C16.7886 18.4469 16.784 18.4543 16.7809 18.4624C16.7779 18.4706 16.7764 18.4792 16.7768 18.4879C16.7771 18.4966 16.7791 18.5051 16.7828 18.513C17.0704 19.0703 17.3979 19.6062 17.7628 20.1165C17.77 20.1275 17.7805 20.1358 17.7929 20.1402C17.8052 20.1447 17.8187 20.145 17.8312 20.1411C19.5792 19.6033 21.2224 18.7718 22.6902 17.6826C22.6978 17.6775 22.7041 17.6706 22.7084 17.6625C22.7127 17.6544 22.7149 17.6453 22.7148 17.6361C23.1193 13.7368 22.0996 9.82288 19.8432 6.6139C19.8404 6.60858 19.8365 6.60389 19.8318 6.60013C19.8271 6.59636 19.8217 6.59362 19.8159 6.59205ZM9.85987 15.4481C8.90178 15.4481 8.1134 14.5712 8.1134 13.4949C8.1134 12.4187 8.88535 11.5391 9.85987 11.5391C10.8344 11.5391 11.62 12.4241 11.6063 13.4949C11.5927 14.5658 10.8317 15.4481 9.85987 15.4481ZM16.3174 15.4481C15.3593 15.4481 14.571 14.5712 14.571 13.4949C14.571 12.4187 15.3429 11.5391 16.3174 11.5391C17.292 11.5391 18.0776 12.4241 18.0639 13.4949C18.0502 14.5658 17.2974 15.4481 16.3174 15.4481Z" fill="white"/>
</g>
<defs>
<filter id="filter0_d_1_137" x="-2.63623" y="-0.634888" width="31.4375" height="26.8005" filterUnits="userSpaceOnUse" color-interpolation-filters="sRGB">
<feFlood flood-opacity="0" result="BackgroundImageFix"/>
<feColorMatrix in="SourceAlpha" type="matrix" values="0 0 0 0 0 0 0 0 0 0 0 0 0 0 0 0 0 0 127 0" result="hardAlpha"/>
<feOffset/>
<feGaussianBlur stdDeviation="3"/>
<feComposite in2="hardAlpha" operator="out"/>
<feColorMatrix type="matrix" values="0 0 0 0 0 0 0 0 0 0 0 0 0 0 0 0 0 0 0.1 0"/>
<feBlend mode="normal" in2="BackgroundImageFix" result="effect1_dropShadow_1_137"/>
<feBlend mode="normal" in="SourceGraphic" in2="effect1_dropShadow_1_137" result="shape"/>
</filter>
</defs>
</svg>
