<svg width="31" height="26" viewBox="0 0 31 26" fill="none" xmlns="http://www.w3.org/2000/svg">
<g filter="url(#filter0_d_1_134)">
<path d="M15.5319 3.30164C13.6915 3.30164 11.8924 3.84623 10.3621 4.86656C8.83187 5.88689 7.63919 7.33712 6.93489 9.03386C6.23059 10.7306 6.04632 12.5977 6.40537 14.3989C6.76441 16.2002 7.65066 17.8547 8.95203 19.1533C10.2534 20.452 11.9114 21.3364 13.7165 21.6946C15.5215 22.0529 17.3925 21.8691 19.0928 21.1662C20.7932 20.4634 22.2465 19.2733 23.2689 17.7462C24.2914 16.2192 24.8372 14.4239 24.8372 12.5874C24.8372 10.1246 23.8568 7.76277 22.1117 6.02136C20.3666 4.27995 17.9998 3.30164 15.5319 3.30164V3.30164ZM21.7435 7.87307L20.7521 8.82307C20.7099 8.85471 20.6772 8.89742 20.6577 8.94647C20.6383 8.99551 20.6328 9.04897 20.6419 9.10092V16.0738C20.6328 16.1257 20.6383 16.1792 20.6577 16.2282C20.6772 16.2773 20.7099 16.32 20.7521 16.3516L21.7206 17.3016V17.5102H16.8482V17.3016L17.8503 16.3295C17.9491 16.2309 17.9491 16.2024 17.9491 16.0516V10.4145L15.1575 17.4859H14.781L11.5327 10.4145V15.1538C11.5194 15.2521 11.5286 15.3521 11.5598 15.4462C11.5909 15.5404 11.6431 15.6263 11.7124 15.6974L13.0173 17.2774V17.4852H9.32022V17.2774L10.6251 15.6974C10.6939 15.6262 10.7449 15.54 10.7741 15.4456C10.8033 15.3512 10.8099 15.2512 10.7933 15.1538V9.67378C10.8007 9.59874 10.7904 9.52301 10.7632 9.45268C10.736 9.38234 10.6926 9.31935 10.6366 9.26878L9.47626 7.87307V7.66592H13.0781L15.8626 13.7588L18.3099 7.66592H21.7457L21.7435 7.87307Z" fill="white"/>
</g>
<defs>
<filter id="filter0_d_1_134" x="0.226562" y="-2.69836" width="30.6108" height="30.5714" filterUnits="userSpaceOnUse" color-interpolation-filters="sRGB">
<feFlood flood-opacity="0" result="BackgroundImageFix"/>
<feColorMatrix in="SourceAlpha" type="matrix" values="0 0 0 0 0 0 0 0 0 0 0 0 0 0 0 0 0 0 127 0" result="hardAlpha"/>
<feOffset/>
<feGaussianBlur stdDeviation="3"/>
<feComposite in2="hardAlpha" operator="out"/>
<feColorMatrix type="matrix" values="0 0 0 0 0 0 0 0 0 0 0 0 0 0 0 0 0 0 0.1 0"/>
<feBlend mode="normal" in2="BackgroundImageFix" result="effect1_dropShadow_1_134"/>
<feBlend mode="normal" in="SourceGraphic" in2="effect1_dropShadow_1_134" result="shape"/>
</filter>
</defs>
</svg>
