<svg width="28" height="26" viewBox="0 0 28 26" fill="none" xmlns="http://www.w3.org/2000/svg">
<g filter="url(#filter0_d_1_132)">
<path d="M15.7562 3.30164C13.8749 3.30164 12.0359 3.85834 10.4716 4.90134C8.90734 5.94434 7.68816 7.4268 6.96821 9.16124C6.24826 10.8957 6.05989 12.8042 6.42692 14.6455C6.79394 16.4868 7.69988 18.1781 9.03017 19.5056C10.3605 20.8331 12.0554 21.7371 13.9005 22.1034C15.7457 22.4696 17.6582 22.2817 19.3963 21.5632C21.1345 20.8448 22.62 19.6282 23.6652 18.0672C24.7104 16.5062 25.2683 14.6711 25.2683 12.7937C25.2683 10.2762 24.2662 7.8619 22.4823 6.0818C20.6984 4.30169 18.279 3.30164 15.7562 3.30164V3.30164ZM21.9657 14.4415C21.966 14.4584 21.9613 14.475 21.9521 14.4891C21.943 14.5033 21.9298 14.5145 21.9144 14.5213C21.7241 14.6029 21.0659 14.9009 20.7938 15.2806C20.0975 16.2488 19.5611 17.6309 18.3778 17.6309H13.4201C13.0015 17.6304 12.5872 17.5475 12.2008 17.3871C11.8143 17.2267 11.4634 16.9919 11.1679 16.696C10.8725 16.4002 10.6384 16.0491 10.4791 15.6629C10.3197 15.2767 10.2382 14.863 10.2392 14.4453V14.3884C10.2397 14.366 10.249 14.3448 10.265 14.3292C10.281 14.3136 10.3025 14.3048 10.3248 14.3048H13.0928C13.1059 14.3053 13.1186 14.3084 13.1304 14.314C13.1421 14.3196 13.1526 14.3275 13.1612 14.3373C13.1698 14.3471 13.1762 14.3585 13.1802 14.3709C13.1841 14.3833 13.1855 14.3963 13.1842 14.4092C13.1639 14.5917 13.1984 14.776 13.2831 14.9389C13.3634 15.101 13.4876 15.2374 13.6416 15.3327C13.7955 15.428 13.9732 15.4783 14.1544 15.4781H15.5222V14.413H14.1639C14.1481 14.4127 14.1327 14.4081 14.1193 14.3998C14.106 14.3915 14.0951 14.3797 14.0879 14.3656C14.0806 14.3516 14.0774 14.3359 14.0784 14.3202C14.0794 14.3045 14.0846 14.2893 14.0935 14.2764L14.143 14.2042C14.2704 14.0144 14.4531 13.741 14.6357 13.4202C14.7628 13.2007 14.8765 12.9737 14.9762 12.7405C14.9953 12.6988 15.0105 12.6551 15.0276 12.6133C15.0523 12.5393 15.0809 12.4691 15.0999 12.4007C15.1189 12.3324 15.136 12.2811 15.1513 12.2242C15.1963 12.0197 15.218 11.8108 15.2159 11.6015C15.2159 11.5161 15.2159 11.4268 15.2045 11.3433C15.1931 11.2598 15.1893 11.1535 15.1779 11.0642C15.1665 10.975 15.1551 10.901 15.1398 10.8175C15.1189 10.6941 15.0923 10.5707 15.0618 10.4378L15.0504 10.3903C15.0276 10.3049 15.0067 10.2251 14.98 10.1397C14.902 9.87394 14.8145 9.61386 14.7194 9.38035C14.6852 9.28353 14.6471 9.19051 14.6072 9.09939C14.5501 8.9589 14.4911 8.83171 14.4379 8.7197C14.4093 8.66465 14.3865 8.61529 14.3637 8.56403C14.3408 8.51278 14.3104 8.45013 14.2819 8.39508C14.2533 8.34002 14.24 8.31344 14.2248 8.27548L14.0574 7.96793C14.0524 7.95862 14.0501 7.94807 14.051 7.93753C14.0518 7.92699 14.0557 7.91692 14.0621 7.90851C14.0685 7.9001 14.0772 7.89371 14.0872 7.89011C14.0971 7.88651 14.1079 7.88585 14.1182 7.8882L15.1646 8.17106L15.3016 8.21093L15.4537 8.2527L15.5089 8.26788V7.64141C15.5084 7.5698 15.5222 7.49882 15.5495 7.43259C15.5768 7.36636 15.617 7.30622 15.6678 7.25568C15.7186 7.20514 15.7791 7.1652 15.8455 7.13821C15.912 7.11121 15.9832 7.0977 16.0549 7.09846C16.1259 7.09791 16.1962 7.11176 16.2616 7.13918C16.327 7.16659 16.3861 7.20699 16.4354 7.25793C16.5357 7.35906 16.5924 7.49533 16.5933 7.63761V8.55834L16.7055 8.58871L16.7303 8.602L16.8463 8.68933C16.8863 8.7197 16.9281 8.75767 16.9776 8.79754C17.0784 8.87917 17.2002 8.98738 17.3314 9.10318C17.3657 9.13356 17.3999 9.16393 17.4323 9.19621C17.6016 9.35377 17.7918 9.53792 17.9744 9.74295C18.0258 9.8018 18.0753 9.85875 18.1266 9.9214C18.178 9.98405 18.2313 10.0448 18.2769 10.1112C18.3226 10.1777 18.4044 10.2783 18.4672 10.3675C18.4938 10.4093 18.5262 10.453 18.5509 10.4947C18.6245 10.6058 18.6924 10.7205 18.7544 10.8383C18.7811 10.8915 18.8077 10.9503 18.8305 11.0073C18.9003 11.1581 18.9539 11.316 18.9903 11.4781C19.0014 11.5114 19.009 11.5458 19.0132 11.5806V11.5806C19.0236 11.6287 19.03 11.6776 19.0322 11.7268C19.0471 11.8933 19.0362 12.061 18.9999 12.2242C18.9846 12.2925 18.9656 12.3571 18.9428 12.4273C18.92 12.4975 18.8952 12.5621 18.8648 12.6285C18.8061 12.7667 18.7355 12.8995 18.6536 13.0253C18.6289 13.0728 18.5965 13.1221 18.5661 13.1696C18.5357 13.217 18.4957 13.2664 18.4653 13.312C18.4348 13.3575 18.3759 13.4316 18.3283 13.4866C18.2877 13.5441 18.2439 13.5993 18.197 13.6518C18.1323 13.7296 18.0696 13.8018 18.0068 13.872C17.9681 13.9192 17.9268 13.9642 17.8831 14.0068C17.8413 14.0542 17.7975 14.096 17.7595 14.134C17.7214 14.1719 17.6396 14.2498 17.594 14.2934L17.4855 14.3903C17.478 14.3976 17.4691 14.4034 17.4593 14.4073C17.4495 14.4113 17.439 14.4132 17.4285 14.413H16.5914V15.4781H17.6396C17.8735 15.4785 18.0997 15.3949 18.2769 15.2427C18.5048 15.0441 18.7208 14.8324 18.9238 14.6086C18.934 14.5963 18.9481 14.5876 18.9637 14.5839L21.8573 13.7429C21.8699 13.7394 21.8832 13.7389 21.8961 13.7413C21.909 13.7438 21.9212 13.7491 21.9317 13.757C21.9422 13.7649 21.9507 13.7751 21.9566 13.7868C21.9625 13.7985 21.9656 13.8114 21.9657 13.8245V14.4415Z" fill="white"/>
</g>
<defs>
<filter id="filter0_d_1_132" x="0.244141" y="-2.69836" width="31.0244" height="30.9841" filterUnits="userSpaceOnUse" color-interpolation-filters="sRGB">
<feFlood flood-opacity="0" result="BackgroundImageFix"/>
<feColorMatrix in="SourceAlpha" type="matrix" values="0 0 0 0 0 0 0 0 0 0 0 0 0 0 0 0 0 0 127 0" result="hardAlpha"/>
<feOffset/>
<feGaussianBlur stdDeviation="3"/>
<feComposite in2="hardAlpha" operator="out"/>
<feColorMatrix type="matrix" values="0 0 0 0 0 0 0 0 0 0 0 0 0 0 0 0 0 0 0.1 0"/>
<feBlend mode="normal" in2="BackgroundImageFix" result="effect1_dropShadow_1_132"/>
<feBlend mode="normal" in="SourceGraphic" in2="effect1_dropShadow_1_132" result="shape"/>
</filter>
</defs>
</svg>
